<?xml version="1.0" standalone="no"?>
<!DOCTYPE svg PUBLIC "-//W3C//DTD SVG 20010904//EN"
 "http://www.w3.org/TR/2001/REC-SVG-20010904/DTD/svg10.dtd">
<svg version="1.0" xmlns="http://www.w3.org/2000/svg"
 width="268.000000pt" height="63.000000pt" viewBox="0 0 268.000000 63.000000"
 preserveAspectRatio="xMidYMid meet">

<g transform="translate(0.000000,63.000000) scale(0.100000,-0.100000)"
fill="#556cd6" stroke="none">
<path d="M2030 500 c-24 -24 -26 -53 -4 -70 35 -30 98 28 81 74 -9 22 -53 20
-77 -4z"/>
<path d="M2223 490 c-55 -33 -81 -91 -69 -155 6 -28 18 -44 57 -72 37 -26 49
-41 47 -57 -3 -19 -9 -21 -54 -18 -98 6 -92 -53 7 -69 96 -15 149 18 149 94 0
33 -7 45 -50 87 -27 27 -50 57 -50 67 0 23 31 54 78 77 36 19 39 28 16 50 -22
22 -92 20 -131 -4z"/>
<path d="M71 486 c-8 -9 -13 -71 -14 -181 -2 -154 -1 -167 17 -181 25 -18 31
-18 50 2 10 10 16 33 16 64 0 64 16 97 54 110 105 37 118 153 20 190 -39 15
-130 12 -143 -4z m123 -62 c9 -8 16 -24 16 -34 0 -22 -26 -50 -46 -50 -10 0
-14 12 -14 43 0 59 14 72 44 41z"/>
<path d="M1117 476 c-14 -14 -17 -36 -17 -109 0 -51 -3 -121 -6 -157 -7 -92
-3 -96 103 -92 108 3 119 7 127 37 10 38 -3 55 -39 55 -92 0 -130 51 -45 60
41 5 45 8 48 35 4 34 -18 55 -59 55 -34 0 -45 15 -28 36 8 10 23 14 38 11 33
-7 61 8 61 32 0 30 -24 42 -97 48 -57 5 -72 3 -86 -11z"/>
<path d="M2419 477 c-13 -12 -17 -50 -22 -172 -3 -87 -3 -163 -1 -170 8 -20
36 -24 125 -18 70 5 82 9 96 29 23 35 9 64 -31 64 -93 0 -131 51 -46 60 41 5
45 8 48 35 4 34 -18 55 -59 55 -34 0 -45 15 -28 36 8 10 23 14 38 11 33 -7 61
8 61 32 0 30 -24 42 -97 48 -55 4 -72 2 -84 -10z"/>
<path d="M696 445 c-76 -27 -126 -94 -126 -170 0 -78 43 -135 117 -154 49 -13
88 0 97 32 8 33 -11 55 -54 62 -95 16 -96 96 -2 136 69 29 88 61 56 93 -19 19
-37 19 -88 1z"/>
<path d="M847 447 c-11 -9 -16 -45 -21 -145 -7 -141 0 -172 34 -172 22 0 28
19 32 90 l3 45 32 -67 c32 -68 59 -93 88 -82 45 18 31 90 -28 153 -22 23 -28
35 -19 38 28 11 97 70 100 87 10 51 -36 40 -120 -28 l-56 -45 5 39 c10 71 -15
115 -50 87z"/>
<path d="M1368 440 c-40 -24 -14 -70 40 -70 l33 0 -3 -115 c-2 -95 0 -117 13
-131 13 -13 21 -14 37 -5 28 15 36 63 27 166 l-7 85 30 0 c16 0 36 7 43 16 21
25 -21 54 -80 54 -25 0 -62 3 -81 5 -19 3 -43 1 -52 -5z"/>
<path d="M370 412 c-71 -35 -88 -131 -42 -236 17 -36 27 -46 57 -55 48 -13
101 4 129 42 15 21 22 47 24 101 5 85 -12 127 -58 151 -38 20 -67 19 -110 -3z
m101 -99 c14 -37 3 -106 -20 -127 -53 -48 -98 67 -50 128 27 34 57 34 70 -1z"/>
<path d="M1604 374 c-8 -32 9 -90 52 -176 43 -85 64 -98 100 -63 l26 26 23
-25 c34 -37 62 -23 112 60 60 96 79 148 65 179 -26 56 -77 13 -118 -99 -24
-65 -32 -39 -9 29 10 29 15 60 12 69 -10 25 -36 30 -57 11 -19 -17 -21 -17
-38 -2 -45 41 -67 -1 -44 -81 10 -37 12 -56 5 -63 -8 -8 -17 6 -32 46 -12 31
-28 70 -36 86 -20 37 -52 39 -61 3z"/>
<path d="M2036 378 c-20 -32 -31 -178 -17 -221 12 -37 43 -53 60 -33 26 32 40
180 21 230 -5 14 -18 30 -29 36 -17 8 -23 6 -35 -12z"/>
</g>
</svg>
